<svg width="1969.4" height="708.8" version="1.1" viewBox="0 0 151.85 54.65" xmlns="http://www.w3.org/2000/svg"><g clip-rule="evenodd" fill-rule="evenodd"><path transform="translate(-.47421 -.3433)" d="m19.925 2.7667c-9.881 11.604-19.355 25.994-19.45 36.75-0.037 4.047 1.255 7.58 4.354 10.256 4.46 3.854 9.374 5.213 14.264 5.221 7.146 0.01 14.242-2.873 19.798-5.096 9.357-3.742 112.79-48.659 112.79-48.659 0.998-0.5 0.811-1.123-0.438-0.812-0.504 0.126-112.6 30.505-112.6 30.505a24.771 24.771 0 0 1-6.524 0.934c-8.615 0.051-16.281-4.731-16.219-14.808 0.024-3.943 1.231-8.698 4.028-14.291z"/></g></svg>